<svg width="4041" height="3007" viewBox="0 0 4041 3007" fill="none" xmlns="http://www.w3.org/2000/svg">
<path d="M1621 1541.5H1681.5V1481H1621" stroke="#2600FF" stroke-width="5"/>
<path d="M1596.5 924.5V1341M1596.5 1341H1621M1596.5 1341H1587.5M1429.5 1341H1587.5M1429.5 1481.5H1547M1587.5 1341V1481.5H1621M1429.5 1541.5H1621" stroke="#2600FF" stroke-width="5"/>
<path d="M1382 924.5V784H1558.5M1675.5 712V784H1630.5M1220.5 793.5L1257.5 815M1428 924.5H1618" stroke="#2600FF" stroke-width="5"/>
<path d="M1285.5 755L1343.5 774" stroke="#2600FF" stroke-width="5"/>
<path d="M1224 718.5L1285 755L1224 886" stroke="#2600FF" stroke-width="5"/>
<path d="M1091.5 800.5L1190 691.5M1194 835L1235.5 769" stroke="#2600FF" stroke-width="5"/>
<path d="M1023.5 725L1135 633L1165 667" stroke="#2600FF" stroke-width="5"/>
<path d="M924 532.5L1066 491.5L1107 586" stroke="#2600FF" stroke-width="5"/>
<path d="M899 425L1045.5 403.5L1054.5 450.5" stroke="#2600FF" stroke-width="5"/>
<path d="M66 704.5V747" stroke="#2600FF" stroke-width="5"/>
<path d="M117 742.5V832.5H5M2.5 775H90.5M1042 323V370.5" stroke="#2600FF" stroke-width="5"/>
<path d="M115.5 704H3" stroke="#2600FF" stroke-width="5"/>
<path d="M117 478V506.5H3.5M3.5 572.5H117V537" stroke="#2600FF" stroke-width="5"/>
<path d="M3.5 332H124M118 385.5V443H3.5" stroke="#2600FF" stroke-width="5"/>
<path d="M354 137L246 132.5L250.5 11M219 131L122.5 126.5M122.5 126.5V6M122.5 126.5V189.5M185 6L182 88.5L201.5 89.4436M225.5 90.5L201.5 89.4436M201.5 89.4436L200.5 113M4 233H122.5V282.5" stroke="#2600FF" stroke-width="5"/>
<path d="M330.5 14L326.5 96L352.5 97" stroke="#2600FF" stroke-width="5"/>
<path d="M445.5 140L468 141.5" stroke="#2600FF" stroke-width="5"/>
<path d="M383 16L378.5 138L411 140" stroke="#2600FF" stroke-width="5"/>
<path d="M445 141.5L450 19.5" stroke="#2600FF" stroke-width="5"/>
<path d="M513.5 22L510 99" stroke="#2600FF" stroke-width="5"/>
<path d="M681.5 151.5L740 154" stroke="#2600FF" stroke-width="5"/>
<path d="M649 28.5L643 148.5L508.5 143" stroke="#2600FF" stroke-width="5"/>
<path d="M705 151L711 32" stroke="#2600FF" stroke-width="5"/>
<path d="M780 34.5L776 153" stroke="#2600FF" stroke-width="5"/>
<path d="M839 36L835.5 115" stroke="#2600FF" stroke-width="5"/>
<path d="M907.5 41L902 159.5" stroke="#2600FF" stroke-width="5"/>
<path d="M1010 165.5L818.5 157.5" stroke="#2600FF" stroke-width="5"/>
<path d="M1049 166.5L1054 48.5" stroke="#2600FF" stroke-width="5"/>
<path d="M1097 170L1163.5 173" stroke="#2600FF" stroke-width="5"/>
<path d="M173 744.5V832.5M173 832.5H295.5M173 832.5H116" stroke="#2600FF" stroke-width="5"/>
<path d="M174.5 705H295.5" stroke="#2600FF" stroke-width="5"/>
<path d="M220 641V674.5" stroke="#2600FF" stroke-width="5"/>
<path d="M174.5 570H294.5" stroke="#2600FF" stroke-width="5"/>
<path d="M174 548V668" stroke="#2600FF" stroke-width="5"/>
<path d="M174.5 507.5H294.5" stroke="#2600FF" stroke-width="5"/>
<path d="M296.5 430.5H172V473" stroke="#2600FF" stroke-width="5"/>
<path d="M313.5 183.5L310 254.5" stroke="#2600FF" stroke-width="5"/>
<path d="M244.5 180.5L239 286.5" stroke="#2600FF" stroke-width="5"/>
<path d="M171.5 174.5V285L304 291" stroke="#2600FF" stroke-width="5"/>
<path d="M443.5 190L437.5 296" stroke="#2600FF" stroke-width="5"/>
<path d="M369 293L370.5 263" stroke="#2600FF" stroke-width="5"/>
<path d="M204 178.5L374.5 186.5L373 209.5" stroke="#2600FF" stroke-width="5"/>
<path d="M370.5 236L440.5 239" stroke="#2600FF" stroke-width="5"/>
<path d="M834.5 208L830 312.5M772 203L767 310" stroke="#2600FF" stroke-width="5"/>
<path d="M572 196L568 301" stroke="#2600FF" stroke-width="5"/>
<path d="M419 188L506 192.5L502 257.5" stroke="#2600FF" stroke-width="5"/>
<path d="M626 197L772 204" stroke="#2600FF" stroke-width="5"/>
<path d="M873.5 208L963 211.5L959.5 317.5" stroke="#2600FF" stroke-width="5"/>
<path d="M894.5 317.5L1042.5 324L1047.5 218L996.5 216" stroke="#2600FF" stroke-width="5"/>
<path d="M895.5 316L295 289.5V1378H3V99L117.5 3.5L1164.5 51.5V327L1115 324" stroke="#2600FF" stroke-width="5"/>
<path d="M211 640H294.5" stroke="#2600FF" stroke-width="5"/>
<path d="M1116.5 323.5V359.5C1117.83 386.833 1119.5 402.5 1128 448C1136.4 473.2 1150.17 507.833 1156 522C1164 538 1185.2 576.9 1206 604.5C1232 639 1259.5 660.5 1272.5 669.5C1285.5 678.5 1345.5 706 1357.5 706C1388.7 710.4 1425.17 711.5 1439.5 711.5H1675.5V685L2409.5 716.5V729.5" stroke="#2600FF" stroke-width="5"/>
<path d="M893.5 316C894.333 357.667 895.5 420 910.5 477C922.5 521.5 919 521 936.5 564.5C954 608 956 616.5 977 652C998 687.5 992 682.5 1031.5 735.5C1071 788.5 1124 827.5 1125.5 829C1183 871.5 1220 885.667 1230 891C1248 898.5 1287.7 914 1302.5 916C1321 918.5 1318 922 1364.5 925C1394.1 925 1419.5 925 1428.5 925V2123.5H49.5V3001H401.5V2346.5H1682V2137H1878.5V2250.5H2187.5V2137H2390V2357H3670.5V3004H4026.5V2126H4008V1894H4038.5V1840H4021V1509H4035.5V1454H3661.5V1509H3678V1840H3658.5V1894H3692V2138.5H3286.5V1875H3322V1736.5H3124.5V2123.5H3042.5V1729H2832V2123.5H2620.5V2062.5H2635V1843H2620.5V1703.5H2635V970.5H2697C2717 966.833 2754 956.667 2765 953C2779 948.333 2811 936 2826 930C2838.5 925 2847 922 2858.5 917.5C2868.5 913.587 2880 907.5 2887.5 903C2895.1 899 2907.5 893 2912 890C2919.5 885.5 2937 874 2944.5 868.5C2962.9 854.1 2976.5 843.833 2981 840.5L3042.5 787.5C3066.1 759.9 3079 746.972 3085.5 738C3097.33 721.667 3123.1 685.3 3131.5 670.5C3142 654.5 3170.5 599.5 3174 589.5C3176.8 581.5 3186.17 550.167 3190.5 535.5L3205.5 469L3210.5 422L3717 441L3729 1178H3705V1266.5H3716.5V1373.5H4003.5V1261H4012.5L4003.5 641V276L3904 175.5L3009.5 135L2952 132L2937 408L2993.5 412C2993 421.167 2993 424.3 2989 441.5C2984 463 2976 499.5 2971 505C2962.5 529.5 2960 529.5 2943.5 562C2927 594.5 2926 594 2913.5 609.5C2901 625 2876.39 649 2866 657.5C2857.2 664.7 2839.67 679.167 2832 685.5C2819.33 692.5 2790.75 706.222 2780 711C2766.5 717 2755.5 722 2741.5 728C2719.5 734.5 2705 736.5 2695 738C2674.5 743 2659.5 744 2653.5 744H2409.5V726" stroke="#2600FF" stroke-width="5"/>
<path d="M1684 933.5L2393 966V1805.5H2192V1738H2177.5" stroke="#2600FF" stroke-width="5"/>
<path d="M1888.5 1737H1875V1808H1682V933.5" stroke="#2600FF" stroke-width="5"/>
<path d="M1890.5 1739.56C1890.75 1700.63 1906.05 1663.41 1933.04 1636.04C1960.03 1608.66 1996.5 1593.38 2034.46 1593.5C2072.42 1593.63 2108.79 1609.15 2135.61 1636.7C2162.43 1664.25 2177.5 1701.58 2177.5 1740.5" stroke="#2600FF" stroke-width="5"/>
<path d="M117.5 572.5V664" stroke="#2600FF" stroke-width="5"/>
<path d="M169 3001V2950.5" stroke="#2600FF" stroke-width="5"/>
<path d="M50 2884H168V2915" stroke="#2600FF" stroke-width="5"/>
<path d="M170.5 2884H201V2831.5" stroke="#2600FF" stroke-width="5"/>
<path d="M51 2677H201.5V2787" stroke="#2600FF" stroke-width="5"/>
<path d="M201.5 2677V2632" stroke="#2600FF" stroke-width="5"/>
<path d="M49.5 2588H202V2596.5" stroke="#2600FF" stroke-width="5"/>
<path d="M254 2829V2885H401V2785.5L254 2783V2793.5" stroke="#2600FF" stroke-width="5"/>
<path d="M402.5 2686H255V2634.5" stroke="#2600FF" stroke-width="5"/>
<path d="M402 2588H254.5V2548.5V2599.5" stroke="#2600FF" stroke-width="5"/>
<path d="M402 2483.5H253.5V2431.5" stroke="#2600FF" stroke-width="5"/>
<path d="M401 2387H254.5V2334" stroke="#2600FF" stroke-width="5"/>
<path d="M401.5 2291.5H256.5V2202.5H401.5M401.5 2291.5V2344M401.5 2291.5V2202.5M401.5 2202.5V2190H450.5" stroke="#2600FF" stroke-width="5"/>
<path d="M480 2190H546.5M546.5 2190V2346.5H645M546.5 2190H585M645 2346.5V2190H608H646M645 2346.5L646 2190M645 2346.5H938V2190M684 2190H646M743 2346.5V2190M743 2190H901.5H705.5H743ZM938 2190H926.5H975.5H938ZM999 2190H1031M1031 2190V2346.5M1031 2190H1122M1031 2346.5H1228.5M1031 2346.5H1441.5M1228.5 2346.5V2190M1228.5 2346.5H1441.5M1228.5 2346.5H1602V2187H1626M1228.5 2190H1145M1228.5 2190H1386.5M1441.5 2346.5V2190H1407.5" stroke="#2600FF" stroke-width="5"/>
<path d="M50 2488H201.5M50 2488V2387H201.5V2392.5M50 2488V2289M201.5 2488V2547.5M201.5 2488V2428.5M50 2289H201.5M50 2289L49.5 2198.5H201.5V2244.5M201.5 2289V2351.5M201.5 2289V2277" stroke="#2600FF" stroke-width="5"/>
<path d="M1429 2046.5C1430.03 2046.5 1452.48 2046.5 1482.5 2046.5M1610.5 2046.5V1976H1552.5L1543.5 1961L1564.5 1945M1610.5 2046.5C1587.92 2046.5 1556.7 2046.5 1526.5 2046.5M1610.5 2046.5H1526.5M1610.5 2046.5V1908M1526.5 2046.5C1511.14 2046.5 1496.05 2046.5 1482.5 2046.5M1526.5 2046.5H1482.5M1526.5 2046.5V2028.5M1538.5 1991L1526.5 2001V2028.5M1482.5 2046.5V2001M1526.5 2028.5H1505V2001" stroke="#2600FF" stroke-width="5"/>
<path d="M1611 1882V1694H1633H1428.5V1542H1681.5V1694H1658.5" stroke="#2600FF" stroke-width="5"/>
<path d="M3823.5 2878V2894.5H3670.5V2799H3823.5M3823.5 2799V2854V2776V2799ZM3670.5 2748.5H3823.5V2695.5M3823.5 2683V2695.5M3823.5 2695.5H3670.5V2645H3823.5V2655V2598.5M3823.5 2593V2598.5M3823.5 2598.5H3765.5M3823.5 2569V2556H3765.5M3765.5 2556H3670.5V2598.5H3765.5M3765.5 2556V2598.5M3670.5 2498.5H3823.5V2518V2455.5M3823.5 2443.5V2455.5M3823.5 2455.5H3790M3670.5 2402.5V2455.5H3790M3670.5 2402.5H3790M3670.5 2402.5H3823.5M3670.5 2402.5V2357M3823.5 2402.5V2415M3823.5 2402.5H3790M3823.5 2402.5V2354M3790 2402.5V2455.5M3609.5 2180.5H3670.5V2357M3670.5 2357H3572.5M3572.5 2357V2180.5H3584.5H3572.25M3572.5 2357L3572.25 2180.5M3560 2180.5H3572.25M3476.5 2357V2180.5M3476.5 2180.5H3538H3461H3476.5ZM3372.5 2357V2180.5M3372.5 2180.5H3437.5H3361.5H3372.5ZM3212.5 2180.5H3275.5M3275.5 2180.5H3338.5H3275V2357L3275.5 2180.5ZM3180 2357V2180.5M3180 2180.5H3189.5H3120H3180ZM3033 2357V2180.5M3033 2180.5H3096.5H3019.5H3033ZM2942 2180.5V2357H2835V2180.5M2942 2180.5H2996H2920.5H2942ZM2835 2180.5H2898H2795.5H2835ZM2719 2357V2180.5M2719 2180.5H2771H2691.5H2719ZM2666 2180.5H2621.5V2213.5M2621.5 2213.5V2357H2535V2213.5M2621.5 2213.5H2587.5M2535 2213.5H2564H2517.5H2535ZM2465 2357V2213.5H2495.5" stroke="#2600FF" stroke-width="5"/>
<path d="M3901.5 2960.5V3004H4026V2890.5M4026 2890.5V2844.5H3926.5M4026 2890.5H3926.5M3874 2878.5V2890.5H3926.5M3926.5 2844.5V2818.5M3926.5 2844.5V2890.5M4026 2788H3926.5V2818.5M4026 2788L3874 2786.5M4026 2788V2693H3874M4026 2788V2497.5H3874M3874 2786.5V2818.5M3874 2786.5V2749.5M3874 2850.5V2818.5M3874 2818.5H3926.5M3874 2693V2720.5V2670.5V2693ZM3874 2497.5V2564M3874 2497.5V2437V2564M3874 2564C3874 2590.33 3874 2643.4 3874 2645M3874 2351.5C3874 2369.33 3874 2405.3 3874 2406.5H4026M4026 2298.5H3874M3874 2298.5V2321V2271.5V2298.5ZM3874 2207.5H4026V2126.5H4008M3874 2207.5V2243V2189.5V2207.5ZM3872 2111.5V2126.5H4008M4008 2126.5V2078.5H3872M3872 2078.5V2095.5V2054V2078.5ZM3872 2037C3872 2036.2 3872 2022.67 3872 2016M3872 2016H4008V1926.5H3872V1939M3872 2016V1957" stroke="#2600FF" stroke-width="5"/>
<path d="M3825.5 2084.5V2127H3692V2064M3692 2064H3825.5M3692 2064V1946.5H3827.5M3825.5 2064V2070V1967V2064Z" stroke="#2600FF" stroke-width="5"/>
<path d="M2834 2123.5H2921M2921 2123.5V2064.5H2901M2921 2123.5H2832V2064.5M2832 2064.5H2884M2832 2064.5V1987.5M2832 1987.5H2921M2832 1987.5V1942.5M2921 1987.5V2042V1942.5M2921 1987.5V1942.5M2921 1942.5H2897.5M2832 1942.5H2881M2832 1942.5V1910H2921V1922.5M2832 1729H2921.5L2921 1881" stroke="#2600FF" stroke-width="5"/>
<path d="M3185 2123.5H3125C3125 2122.5 3124.5 1871.5 3125 1871.5C3125.4 1871.5 3186.83 1871.5 3217.5 1871.5V1853M3125 1814.5H3217.5H3124.5V1736.5H3218.5L3217.6 1791M3217.5 1797L3217.6 1791M3217.6 1791H3245V1800" stroke="#2600FF" stroke-width="5"/>
<path d="M3287 1875.5H3245.5V1819" stroke="#2600FF" stroke-width="5"/>
<path d="M2951.5 2112V2123.5H3042.5V2084H2951.5M2951.5 2084V2097V2059V2084ZM2951.5 2037C2952.3 2037 3012.5 2037 3042.5 2037V1988.5M3042.5 1988.5H2951.5M3042.5 1988.5V1878M2951.5 1988.5V2021V1942V1988.5ZM3042.5 1878H2951.5M3042.5 1878V1801.5H2951.5M2951.5 1878V1921.5V1849.5V1878ZM2951.5 1801.5V1828.5V1787.5V1801.5ZM2951.5 1729.5V1767.5" stroke="#2600FF" stroke-width="5"/>
<path d="M1674 1905.5V2047H1874V1905.5H1902.5V1958H1971.5C1979.5 2018 2071 2044 2094 1958H2162.5V1905.5H2191V1968H2391V1905.5" stroke="#2600FF" stroke-width="5"/>
<path d="M2393 1805V1877" stroke="#2600FF" stroke-width="5"/>
<path d="M2621 2123.5H2453.5V2050.5M2453.5 2050.5H2546M2453.5 2050.5V1856M2453.5 1856H2553.5M2453.5 1856V1789" stroke="#2600FF" stroke-width="5"/>
<path d="M2453 1755V1689H2501M2556.5 1689H2501M2501 1689V1558H2393H2635" stroke="#2600FF" stroke-width="5"/>
<path d="M2635 1419.5H2466V1107.5H2635V1048.5M2635 1048.5H2599.5M2635 1048.5V970.5L2539 967" stroke="#2600FF" stroke-width="5"/>
<path d="M2466 1107L2470 962L2498.5 963.5" stroke="#2600FF" stroke-width="5"/>
<path d="M2560.5 1047.5C2560.5 1066.67 2560.5 1105.4 2560.5 1107V1000M2560.5 1047.5C2568.17 1047.5 2583.2 1047.5 2582 1047.5C2580.8 1047.5 2567.17 1047.5 2560.5 1047.5ZM2560.5 1047.5V1000M2560.5 996V1000M2560.5 1000H2513M2467 1107L2469 1000H2482.5" stroke="#2600FF" stroke-width="5"/>
<path d="M1682 933C1682 930.2 1685 870.167 1686.5 840.5L1721.5 842.5M1772 937.5L1777 845L1746.5 842.5" stroke="#2600FF" stroke-width="5"/>
<path d="M1875 943.5L1875.1 942M1818.5 845.5L1881.5 848L1875.1 942M1875.1 942L2126.5 953.521M2191.5 956.5L2126.5 953.521M2191.5 956.5L2198.5 857L2247.5 859M2191.5 956.5L2295 962M2126.5 953.521L2132 892.5L2168.5 894M2295 962L2301 861H2276.5H2300.5M2295 962L2300.5 861M2324.5 861H2300.5M2392.5 965L2396.5 864H2360" stroke="#2600FF" stroke-width="5"/>
<path d="M2169.5 896.5C2169.5 896.1 2170.83 869.333 2171.5 856" stroke="#2600FF" stroke-width="5"/>
<path d="M1676.5 783.5C1677.7 783.9 1706 784 1720 784" stroke="#2600FF" stroke-width="5"/>
<path d="M1746.5 786L1779.5 786.852M1824 788L1779.5 786.852M1779.5 786.852L1783 689.5L1894.5 694.5L1888.5 791L1850.5 789.5L1922 793.5" stroke="#2600FF" stroke-width="5"/>
<path d="M1949 794.5L2101 799.728M2138 801L2101 799.728M2101 799.728L2103.5 755L2210 759M2210 759L2213.5 708.5L2106.5 704.5L2103.5 753.5L2210 759ZM2210 759L2207 804.5M2162.5 802.5L2207 804.5M2207 804.5L2244.5 806L2247 759H2232" stroke="#2600FF" stroke-width="5"/>
<path d="M2272 806.5C2272.8 806.5 2294.67 807.5 2305.5 808L2311.5 712.5L2409.5 717L2404.5 812L2335.5 809.5L2496.5 816.5" stroke="#2600FF" stroke-width="5"/>
<path d="M2543 820.5C2709.51 833.936 2822.49 788.077 2899 726.846M3041 529.5C3038.99 534.431 3036.74 539.786 3034.23 545.5M2899 897.5L2839.5 769L2899 726.846M2899 726.846L2990 834.5M2899 726.846C2918.99 710.852 2936.48 693.809 2951.8 676.5M3054 775L2951.8 676.5M2951.8 676.5C2993.29 629.593 3018.75 580.732 3034.23 545.5M3169 601L3034.23 545.5M3184 560.5L3181.81 559.808M3098.5 533.5L3094.5 541.5L3103.5 516.5L3098.5 533.5ZM3098.5 533.5L3181.81 559.808M3181.81 559.808L3194.5 520M3194.5 520L3111 499L3117.5 461M3194.5 520L3210.5 422.5L3124.5 413.5L3127.5 392" stroke="#2600FF" stroke-width="5"/>
<path d="M3130.5 349L3133.5 296L3257 303.5V319L3375 324" stroke="#2600FF" stroke-width="5"/>
<path d="M3403.5 355.5L3400.5 430L3435 431L3437.5 326.5L3403.5 325V338" stroke="#2600FF" stroke-width="5"/>
<path d="M3518.5 330.5L3438 327L3435 430L3619.5 437.5L3622.11 380M3623 360.5L3622.11 380M3622.11 380L3651.5 381L3653 337.5L3545.5 332.5" stroke="#2600FF" stroke-width="5"/>
<path d="M3674.5 439L3677 337.5L3717.5 340L3716 439" stroke="#2600FF" stroke-width="5"/>
<path d="M3719 1316H3801.5M3817 1316H3801.5M3801.5 1316V1305M3801.5 1316H3716.73V1266.5H3800.5M3800.5 1266.5H3814.5M3800.5 1266.5V1288V1291" stroke="#2600FF" stroke-width="5"/>
<path d="M3858.5 1373.5V1314.5H3883.5" stroke="#2600FF" stroke-width="5"/>
<path d="M3901.5 1298.5V1314.5H4003V1261L3901.5 1262.5V1282.5" stroke="#2600FF" stroke-width="5"/>
<path d="M3900.5 1218.5C3900.5 1217.31 3900.5 1198.68 3900.5 1182.5M3900.5 1167.5C3900.5 1171.68 3900.5 1176.94 3900.5 1182.5M3900.5 1182.5L4011 1182L4009.5 1040.5H3897.5M3897.5 1040.5L3899 1135L3895 959.5L3897.5 1040.5ZM3895 924.5C3895 918.5 3895 877.333 3895 857.5H4005.5V792.5L3894 795.5M3894 795.5V824L3892.5 777.5L3894 795.5ZM3890.5 747L3888 647.5M3888 647.5H3912M3888 647.5C3888 646.3 3888 626.667 3888 617" stroke="#2600FF" stroke-width="5"/>
<path d="M3934 648C3934.8 648 3981 648 4004 648L4003 536.5H3886.5V587L3883.5 456.5" stroke="#2600FF" stroke-width="5"/>
<path d="M3883 430.5V414.5M3883 414.5L3904 415.5M3883 414.5L3882.33 375M3882 355.5L3882.33 375M3882.33 375H4003V291.5H3918" stroke="#2600FF" stroke-width="5"/>
<path d="M3932.5 416.5H4003" stroke="#2600FF" stroke-width="5"/>
<path d="M3880.5 323.5V291M3880.5 291H3898M3880.5 291L3885.5 176M3880.5 291L3853 289.5" stroke="#2600FF" stroke-width="5"/>
<path d="M3828 286.5L3798 285.188M3748 283L3798 285.188M3798 285.188L3803 172L3711.5 166.5L3708.5 279.5L3720 280.5L3677.5 277.5" stroke="#2600FF" stroke-width="5"/>
<path d="M3608.5 274L3626.75 275M3645 276L3626.75 275M3626.75 275L3632.5 163.5L3506.5 158L3504.49 222M3503 269.5L3580 272.5M3503 269.5L3504.49 222M3503 269.5H3469.5L3503 270.5C3503.49 254.667 3504.47 222.8 3504.49 222M3504.49 222L3473.5 221M3443 267.5L3444.5 219M3444.5 219L3461 220M3444.5 219L3447 155L3339.5 150L3335.5 262.5L3415 265L3314.5 261.5" stroke="#2600FF" stroke-width="5"/>
<path d="M3287.5 261L3256.5 259.245M3234.5 258L3256.5 259.245M3256.5 259.245C3256.1 258.249 3260 183.667 3262 146.5L3208 144L3202 258L3113 252" stroke="#2600FF" stroke-width="5"/>
<path d="M3079.5 139.5L3072.5 248" stroke="#2600FF" stroke-width="5"/>
<path d="M2994.5 412C2994.5 408.4 2995.17 400.833 2995.5 397.5L3063 403L3071 281.5L3067 318L3021 315L3024 245.5H3035C3025.33 245.167 3006 244.2 3006 243C3006 242.543 3006.34 235.841 3006.82 226.5M3006.82 226.5C3007.61 211.304 3008.78 189.125 3009.5 175.5L3006.82 226.5ZM2947.5 221.5C2949.9 221.9 2966.83 223 2975 223.5M2942 307.5L2991.5 311" stroke="#2600FF" stroke-width="5"/>
<path d="M3802 399C3803.6 399 3823 399 3832.5 399L3830.5 483M3830.5 483H3718M3830.5 483V495.5" stroke="#2600FF" stroke-width="5"/>
<path d="M3829.5 528.5V540.5M3829.5 586V540.5M3829.5 540.5H3720" stroke="#2600FF" stroke-width="5"/>
<path d="M3831 619.5L3832 670.5M3833.5 747L3832 670.5M3832 670.5H3720" stroke="#2600FF" stroke-width="5"/>
<path d="M3836 782V859M3836 881V859M3836 859L3724.5 861.5V810.5H3806" stroke="#2600FF" stroke-width="5"/>
<path d="M3839 910V945.5M3839 954V945.5M3839 945.5H3725.5V997.5L3841 994.5V1008.5" stroke="#2600FF" stroke-width="5"/>
<path d="M3730.5 1177.5H3844.5V1104.5" stroke="#2600FF" stroke-width="5"/>
<path d="M3842 1033.5V1040M3842 1071.5V1040M3842 1040H3728" stroke="#2600FF" stroke-width="5"/>
<path d="M3901.5 1263H3842V1234.5V1264.5L3901.5 1263ZM3901.5 1263V1243.5" stroke="#2600FF" stroke-width="5"/>
<path d="M44.5 1287C46.0618 1287 62.0081 1287 80 1287M80 1287C94.2638 1287 109.813 1287 120.5 1287H80ZM80 1287L77.5 1377M151.5 1287H176M176 1287V1311.5M176 1287H293.5V1377H174V1341.5" stroke="#2600FF" stroke-width="5"/>
</svg>
