<svg width="1138" height="1002" viewBox="0 0 1138 1002" fill="none" xmlns="http://www.w3.org/2000/svg">
<path d="M532.059 591.115H479.441L479.311 505.828L479.829 505.983H480.778L482.028 505.467L483.02 504.331L483.236 502.834L482.718 501.027L481.554 499.994L479.958 499.788L478.923 500.201V488.172L479.613 488.74L481.166 488.895C481.511 488.688 482.227 488.254 482.33 488.172C482.434 488.089 482.833 487.415 483.02 487.088L483.236 485.539L482.718 483.99C482.373 483.663 481.657 483.009 481.554 483.009C481.45 483.009 480.677 482.768 480.303 482.648L478.923 483.319V482.441H478.233V441.398H479.009V440.572L479.872 441.037L480.907 441.14L482.071 440.572L483.02 439.281L483.236 437.526C483.121 437.13 482.831 436.277 482.589 436.029C482.287 435.719 481.899 435.255 481.77 435.255C481.666 435.255 481.065 434.979 480.778 434.842H479.829L479.009 435.255V423.587L479.829 423.948L480.907 424.103L481.77 423.587L482.891 422.709L483.236 421.728V420.18L482.589 418.941L481.597 417.856H480.088L479.009 418.269L479.268 306.136L485.177 306.549V309.079L545.257 311.557V310.37L565.14 311.144V312.331L584.203 313.261L584.376 311.867L601.973 313.003H604.518V313.88H611.893V313.003L616.81 313.261L616.982 312.435L622.201 312.641L622.029 315.016H622.33L672.663 317.288L671.973 326.993L671.24 357.608L670.377 404.795L669.17 404.382L668.091 404.537L667.229 405.259L667.013 406.189L667.358 407.325L667.789 408.512L668.48 409.131L669.601 409.028L670.377 408.667L670.075 421.573L669.17 421.264L668.35 421.573L667.617 422.141L667.358 423.071L667.272 424.258L667.617 425.187L668.35 425.858H669.385L670.075 425.497V432.054H673.483L673.094 461.481H670.507V464.785L670.075 464.475L669.428 464.165L668.48 464.475L667.746 465.353L667.358 466.644L667.531 467.676L668.264 468.554L669.428 468.812L670.075 468.296L670.507 468.554L670.291 480.066L669.428 479.55L668.264 479.808L667.358 480.583L667.186 481.667L667.358 483.061L668.091 483.577L669.17 483.784L670.291 483.577L670.809 483.784L671.067 506.551H672.189V591.012H617.802V568.09H614.653V565.25L614.136 560.139L613.187 554.564L611.203 548.214L608.831 542.896L605.984 538.25L603.181 534.481L599.256 530.454L594.21 526.324L588.171 523.02L582.349 521.316L576.181 520.49L569.453 520.852L563.415 522.504L557.765 525.085L551.985 529.215L545.386 536.185L541.85 542.018L537.407 552.241C536.933 554.942 535.906 560.439 535.596 560.811C535.285 561.182 535.466 565.577 535.596 567.729H532.059V591.115Z" stroke="#0A2BFF" stroke-width="25"/>
<g filter="url(#filter0_d_1_6)">
<path d="M36.4085 691.633V978.832V980.174H130.993V978.832V766.491H383.605V770.983H479.57V698.344H532.879V735.051H617.068V698.344H671.973V769.899H766.773V769.486V765.975H1021.28V980.845H1058.42V978.212H1062.39L1062.77 978.987L1063.21 979.554L1064.24 980.019H1065.32L1066.53 979.348L1067.04 978.832L1067.22 978.212L1073.56 978.057L1073.69 978.419L1074.12 979.348L1074.68 980.019H1075.93H1077.18L1078.09 979.141L1078.52 978.212H1082.14V981H1117.64V694.317H1112.63L1112.46 671.86H1109.57V667.11L1110.48 667.007L1111.12 666.542L1111.81 665.819L1112.24 664.838L1112.03 662.773L1111.55 661.896L1110.48 661.018L1109.57 660.605V648.937L1110.26 648.782L1111.25 648.369L1112.03 647.027L1112.24 645.427L1111.81 644.084L1110.82 642.897L1109.57 642.484V637.166H1111.81L1111.99 619.097H1121V601.338H1115.65V588.534L1116.47 588.328L1117.16 587.811L1117.77 587.037L1118.15 585.643L1118.02 584.301L1117.46 583.165L1116.69 582.494L1115.78 582.029L1115.65 569.535H1116.04L1116.69 569.226L1117.46 568.4L1118.02 567.47L1118.15 566.128L1117.89 564.837L1117.16 563.857L1116.3 563.289L1115.78 563.031V549.504L1116.69 549.246L1117.33 548.73L1117.89 547.749L1118.15 546.665L1118.02 545.323L1117.33 544.187L1116.69 543.567L1115.78 543.361V542.896V531.745H1116.43L1117.12 531.125L1117.77 530.351L1118.15 529.628V528.286L1117.89 527.357L1117.33 526.324L1116.43 525.601L1115.78 525.343V512.333H1116.26L1116.73 512.075L1117.42 511.455L1117.89 510.475L1118.15 509.287L1117.89 507.945C1117.75 507.721 1117.45 507.243 1117.42 507.119C1117.39 506.995 1116.95 506.62 1116.73 506.448L1115.78 506.241V505.88V493.076H1119.92V475.575H1090.98V478.724L1090.51 478.311L1089.69 478.105L1088.65 478.311L1087.66 478.931L1087.01 479.653L1086.75 480.583V482.08H1079.94V481.099L1079.68 480.428L1079.08 479.653L1078.34 479.086L1077.52 478.931L1076.32 479.086L1075.5 479.808L1074.81 480.841L1074.72 482.08H1063.85V481.099L1063.46 480.325L1062.56 479.344L1061.57 478.931L1060.19 479.086L1059.19 479.963L1058.5 480.892V482.08L1051.69 482.235V481.822V480.531L1051.34 479.447C1051.13 479.223 1050.69 478.724 1050.65 478.518C1050.62 478.311 1050.07 478.191 1049.79 478.156L1048.54 478.001L1047.89 478.518H1047.29V475.627H1018.44V493.438H1022.79L1022.62 506.138L1021.46 506.706L1020.51 507.79L1020.33 509.132L1020.64 510.939C1020.95 511.318 1021.62 512.085 1021.76 512.127C1021.9 512.168 1022.51 512.419 1022.79 512.54L1022.62 525.55L1021.59 525.911L1020.77 526.892L1020.33 527.976L1020.51 529.576L1020.98 530.764L1021.8 531.59L1022.79 531.951V543.309L1022.32 543.412L1021.28 544.032L1020.51 545.374L1020.38 547.026L1020.98 548.42L1021.76 549.246L1022.71 549.556V563.237L1021.89 563.547L1020.94 564.218L1020.38 565.457V567.109L1020.81 568.296L1021.89 569.329L1022.88 569.639V582.391H1022.58H1022.06L1020.72 583.423L1020.38 584.662L1020.72 586.779L1021.59 587.966L1022.58 588.741V601.596H1017.57V619.613H1026.67V638.87H1029.43V643.31L1027.67 644.136L1027.11 645.685V647.647L1028.23 649.144L1029.43 649.867V660.708H1028.83L1027.67 661.586L1027.11 663.806L1027.67 666.026L1029.43 667.058V671.756H1026.67V694.472H916.219V613.005H925.966V567.729H872.053V694.472H849.539V564.992H792.435V694.472H766.773V692.872H735.202V673.15H738.825L738.738 603.041L735.202 602.835V556.164H738.307L738.825 460.81H736.841V432.828H739.644L740.162 405.827L741.154 320.179L757.371 321.005V318.578L770.87 315.223L787.26 308.408L803.347 300.664L815.639 293.746L830.692 281.975L843.631 269.43L856.699 254.458L867.956 237.473L877.358 221.365L881.585 212.382L887.063 196.739L892.195 176.295L896.206 157.193L898.578 139.898L1033.19 147.384L1035.82 293.023L1037.63 386.571H1030.12V414.191H1033.14L1034.31 449.297H1111.51L1110.69 412.694L1114.14 412.436V408.925V399.735L1113.88 389.617V380.582L1113.58 371.547V362.203L1113.11 350.277L1112.85 338.403V326.839L1112.55 318.372V308.201L1112.16 296.121L1111.9 284.092V276.761L1111.43 266.952V248.159H1110.99V244.752L1110.65 235.459V225.96H1110.86V225.702V220.384L1110.65 213.983C1110.49 211.866 1110.17 207.591 1110.17 207.426V199.94L1110.35 195.087L1110.17 190.802L1109.61 185.227V177.844L1109.87 167.57L1109.61 160.188L1109.31 150.017V132.619H1112.85L1113.11 130.141H1114.19V127.766L1113.88 122.087H1112.68V121.881V121.055H1111.86L1111.6 120.229L1108.97 120.022V99.1133H1111.81V97.7194H1112.72V95.9641H1113.71V87.5489H1111.81V85.3806H1107.59L1107.33 85.0708L1089.52 63.9555L1089.82 56.2115L1087.75 56.0566V53.3204L1080.8 53.0107L1080.67 54.0432H1079.64V55.3339H1078.34V59.3091H1078.09C1078.22 59.3091 1066.56 58.4487 1060.7 58.0185V54.0948H1059.15V52.8042L1057.77 52.6493V51.4619H1057.47L1050.57 50.894V53.0623H1048.5L1048.33 57.4506L1036.94 56.7794L1020.21 55.7469L999.158 54.7143L979.188 53.4753L964.395 52.8042L955.036 52.2363L944.641 51.3586L929.848 50.894L917.211 50.2745L902.201 49.087L892.368 48.4675V48.0545V44.2341H890.384V43.7695L890.599 40.9817L890.125 40.7751L884.302 40.0524V40.7751H883.31L883.138 41.7044H881.801V43.7695H880.55L880.377 47.2801L863.298 45.8346V42.3239L862.435 42.1174V40.517L860.408 40.2589V39.1747L853.507 38.7101V40.7751H851.48L851.049 45.0085L839.706 44.1825L839.361 48.6224L825.257 47.6931L825.128 54.1465L826.379 54.4046L825.732 66.1238H824.697L824.222 74.539L825.257 74.8487L823.791 102.417H822.713L822.195 110.213L823.187 110.42L822.454 119.196L821.203 119.351L820.556 127.818H820.987L835.134 128.902V129.263V134.426L834.444 139.898L832.805 149.656L829.441 163.079L825.43 174.591L820.858 185.536L817.839 191.628L813.267 198.908L807.574 206.652L800.112 215.377L794.376 221.365L787.648 226.373L780.747 230.348L772.811 234.633L765.177 237.783L757.112 240.467L749.09 242.326L740.809 243.616L733.433 244.236H729.207L719.761 243.874L709.841 242.997L697.118 241.706L678.356 239.641V238.918L678.744 233.549H677.925H673.138V234.375H670.852L670.55 235.046L651.616 233.549V229.626H650.753V228.18H645.664V229.058H644.758V230.193H643.68V230.968L625.738 230.193V226.631H621.08V228.18H620.26V229.058H618.88L597.185 228.18V227.199H596.15V226.115L591.665 225.753V226.631H590.543V227.819L568.849 226.631V225.753H568.116V224.721L563.113 224.36V225.289H562.164V226.631H561.301L539.866 225.289V224.721H538.831V223.379H533.827L533.526 226.115L515.885 225.289V224.721H514.807V223.379H513.901V222.449H508.726V223.379H507.863V227.457H506.44V228.49L488.627 227.457V226.631H486.945V225.289H481.036V227.922H478.707V231.691H413.322L399.779 231.329L391.369 229.729L385.676 227.612L376.92 223.379L369.243 217.751L359.927 208.768L349.792 195.604L341.856 181.2L335.947 166.899L331.634 152.031L329.175 138.35L327.666 125.908L327.148 114.446V106.289H341.295V99.1133H340.346V87.1875H341.295V79.8049H340.346V50.894H341.295V44.0276H340.346V31.4823H341.295L340.993 24.2546H327.407V19.6598H314.641L313.95 15.8911H311.578V13.1549H304.548V15.8911H300.796V19.6598H284.277V15.8911H281.56V13.1549H274.659V15.8911H271.597V19.6598H89.2428V15.5813H86.31V13H79.2798V15.5813H76.347V19.6598H57.1972V15.5813H54.8251V13H47.0185V15.5813H44.7326V19.6598L41.6704 22.9123L43.2662 25.2355L27.3081 43.6662L25.7123 42.0142L22.0893 45.9378H18.8115V49.3452H17V58.1217H19.329V61.5291H22.8226V81.6118H18.8115V85.2773H17V93.6409H19.329V97.5645H22.0893V450.123H101.492V419.147H99.7234L100.715 149.088H106.624V111.297H262.669L263.661 128.076L265.343 142.738L268.491 158.639L276.082 188.118L286.822 216.151L298.812 239.589L318.436 263.802L337.413 281.975L354.45 294.107L374.074 302.419L395.552 308.666H410.26V691.633H36.4085Z" stroke="#0A2BFF" stroke-width="25" shape-rendering="crispEdges"/>
</g>
<defs>
<filter id="filter0_d_1_6" x="0.5" y="0.5" width="1137" height="1001" filterUnits="userSpaceOnUse" color-interpolation-filters="sRGB">
<feFlood flood-opacity="0" result="BackgroundImageFix"/>
<feColorMatrix in="SourceAlpha" type="matrix" values="0 0 0 0 0 0 0 0 0 0 0 0 0 0 0 0 0 0 127 0" result="hardAlpha"/>
<feOffset dy="4"/>
<feGaussianBlur stdDeviation="2"/>
<feComposite in2="hardAlpha" operator="out"/>
<feColorMatrix type="matrix" values="0 0 0 0 0 0 0 0 0 0 0 0 0 0 0 0 0 0 0.25 0"/>
<feBlend mode="normal" in2="BackgroundImageFix" result="effect1_dropShadow_1_6"/>
<feBlend mode="normal" in="SourceGraphic" in2="effect1_dropShadow_1_6" result="shape"/>
</filter>
</defs>
</svg>
